<svg width="111" height="18" viewBox="0 0 111 18" fill="none" xmlns="http://www.w3.org/2000/svg">
<path d="M5.874 17.22C5.082 17.22 4.31933 17.0917 3.586 16.835C2.85267 16.571 2.233 16.1603 1.727 15.603C1.221 15.0383 0.898333 14.3087 0.759 13.414H3.542C3.63733 13.8173 3.80967 14.1363 4.059 14.371C4.31567 14.6057 4.60533 14.7743 4.928 14.877C5.25067 14.9723 5.55867 15.02 5.852 15.02C6.468 15.02 6.963 14.9247 7.337 14.734C7.71833 14.536 7.909 14.2353 7.909 13.832C7.909 13.524 7.79533 13.2783 7.568 13.095C7.348 12.9117 6.98133 12.7723 6.468 12.677L4.466 12.259C3.46133 12.0463 2.65467 11.687 2.046 11.181C1.43733 10.6677 1.12567 9.94167 1.111 9.003C1.111 8.321 1.29067 7.70867 1.65 7.166C2.01667 6.62333 2.55567 6.19433 3.267 5.879C3.97833 5.56367 4.851 5.406 5.885 5.406C7.28567 5.406 8.404 5.714 9.24 6.33C10.0833 6.946 10.5123 7.815 10.527 8.937H7.843C7.76233 8.497 7.54233 8.15967 7.183 7.925C6.831 7.683 6.38733 7.562 5.852 7.562C5.29467 7.562 4.83633 7.661 4.477 7.859C4.11767 8.057 3.938 8.35767 3.938 8.761C3.938 9.06167 4.08467 9.3 4.378 9.476C4.67133 9.64467 5.126 9.79133 5.742 9.916L7.59 10.334C8.228 10.488 8.745 10.7007 9.141 10.972C9.54433 11.236 9.856 11.5257 10.076 11.841C10.296 12.1563 10.4463 12.4753 10.527 12.798C10.615 13.1133 10.659 13.3993 10.659 13.656C10.659 14.4113 10.4573 15.0567 10.054 15.592C9.65067 16.12 9.08967 16.5233 8.371 16.802C7.65233 17.0807 6.82 17.22 5.874 17.22ZM19.7132 7.859H17.1832L17.2052 13.92C17.2052 14.1987 17.2382 14.4077 17.3042 14.547C17.3775 14.679 17.4875 14.767 17.6342 14.811C17.7882 14.8477 17.9825 14.866 18.2172 14.866H19.7462V16.846C19.5995 16.912 19.3685 16.9743 19.0532 17.033C18.7452 17.0917 18.3125 17.121 17.7552 17.121C16.7579 17.121 15.9842 16.9927 15.4342 16.736C14.8915 16.4793 14.5139 16.12 14.3012 15.658C14.0885 15.196 13.9822 14.6607 13.9822 14.052V7.859H12.1342V5.626H14.0922L14.8952 2.194H17.1832V5.615H19.7132V7.859ZM26.6047 17.22C25.49 17.22 24.5184 16.9817 23.6897 16.505C22.8684 16.0283 22.2304 15.3537 21.7757 14.481C21.3284 13.6083 21.1047 12.5743 21.1047 11.379C21.1047 10.1837 21.3284 9.13867 21.7757 8.244C22.2304 7.34933 22.8684 6.65267 23.6897 6.154C24.5184 5.65533 25.4937 5.406 26.6157 5.406C27.7377 5.406 28.7094 5.65167 29.5307 6.143C30.352 6.627 30.9864 7.31633 31.4337 8.211C31.881 9.10567 32.1047 10.1617 32.1047 11.379C32.1047 12.523 31.8847 13.535 31.4447 14.415C31.012 15.2877 30.385 15.9733 29.5637 16.472C28.7497 16.9707 27.7634 17.22 26.6047 17.22ZM26.6157 14.833C27.1804 14.833 27.635 14.668 27.9797 14.338C28.3244 14.008 28.5737 13.5753 28.7277 13.04C28.889 12.4973 28.9697 11.907 28.9697 11.269C28.9697 10.6677 28.8964 10.0993 28.7497 9.564C28.6104 9.02867 28.3684 8.596 28.0237 8.266C27.679 7.936 27.2097 7.771 26.6157 7.771C26.051 7.771 25.5927 7.92867 25.2407 8.244C24.896 8.552 24.643 8.97367 24.4817 9.509C24.3204 10.037 24.2397 10.6237 24.2397 11.269C24.2397 11.863 24.313 12.435 24.4597 12.985C24.6064 13.5277 24.852 13.9713 25.1967 14.316C25.5414 14.6607 26.0144 14.833 26.6157 14.833ZM39.1191 5.406C40.0724 5.406 40.8938 5.60033 41.5831 5.989C42.2798 6.37767 42.8261 6.902 43.2221 7.562C43.6254 8.222 43.8564 8.959 43.9151 9.773H41.2421C41.1908 9.47233 41.0844 9.17533 40.9231 8.882C40.7618 8.58133 40.5344 8.33567 40.2411 8.145C39.9478 7.947 39.5811 7.848 39.1411 7.848C38.3931 7.848 37.7844 8.13767 37.3151 8.717C36.8531 9.289 36.6221 10.1617 36.6221 11.335C36.6221 12.4423 36.8494 13.3223 37.3041 13.975C37.7588 14.6203 38.3931 14.943 39.2071 14.943C39.6398 14.943 39.9991 14.8367 40.2851 14.624C40.5784 14.4113 40.8058 14.1583 40.9671 13.865C41.1284 13.5643 41.2311 13.2857 41.2751 13.029H43.8821C43.8308 13.8137 43.6034 14.525 43.2001 15.163C42.7968 15.7937 42.2468 16.296 41.5501 16.67C40.8608 17.0367 40.0504 17.22 39.1191 17.22C38.0631 17.22 37.1208 16.9853 36.2921 16.516C35.4634 16.0467 34.8108 15.3757 34.3341 14.503C33.8648 13.623 33.6301 12.5743 33.6301 11.357C33.6301 10.1837 33.8574 9.14967 34.3121 8.255C34.7668 7.36033 35.4048 6.66367 36.2261 6.165C37.0548 5.659 38.0191 5.406 39.1191 5.406ZM57.116 17H53.915L50.846 12.094L49.339 13.7V17H46.127V0.653999H49.339V10.345L53.519 5.626H56.973L52.837 10.158L57.116 17ZM59.3172 17V1.094H63.9812L67.6222 12.435L71.2962 1.094H75.9492V17H72.7042V4.834L68.8762 17H66.3572L62.5512 4.889V17H59.3172ZM82.384 17.22C81.658 17.22 81.0053 17.0843 80.426 16.813C79.8467 16.5417 79.3883 16.1493 79.051 15.636C78.7137 15.1153 78.545 14.4847 78.545 13.744C78.545 12.4973 79.0107 11.5513 79.942 10.906C80.8733 10.2533 82.3437 9.916 84.353 9.894L85.772 9.872V9.19C85.772 8.66933 85.618 8.26967 85.31 7.991C85.0093 7.705 84.54 7.56567 83.902 7.573C83.4327 7.58033 82.9853 7.69033 82.56 7.903C82.142 8.11567 81.856 8.486 81.702 9.014H79.029C79.073 8.19267 79.3113 7.518 79.744 6.99C80.1767 6.45467 80.7633 6.05867 81.504 5.802C82.252 5.538 83.099 5.406 84.045 5.406C85.211 5.406 86.146 5.55267 86.85 5.846C87.554 6.132 88.0637 6.54633 88.379 7.089C88.6943 7.62433 88.852 8.26233 88.852 9.003V17H86.168L85.904 15.042C85.5153 15.8633 85.0277 16.4317 84.441 16.747C83.8617 17.0623 83.176 17.22 82.384 17.22ZM83.462 15.108C83.7553 15.108 84.0377 15.0567 84.309 14.954C84.5877 14.844 84.8333 14.701 85.046 14.525C85.266 14.3417 85.442 14.1363 85.574 13.909C85.706 13.6817 85.772 13.447 85.772 13.205V11.522L84.617 11.544C84.0817 11.5513 83.583 11.6173 83.121 11.742C82.659 11.8593 82.285 12.0537 81.999 12.325C81.7203 12.5963 81.581 12.963 81.581 13.425C81.581 13.953 81.7643 14.3673 82.131 14.668C82.4977 14.9613 82.9413 15.108 83.462 15.108ZM98.1312 7.859H95.6012L95.6232 13.92C95.6232 14.1987 95.6562 14.4077 95.7222 14.547C95.7955 14.679 95.9055 14.767 96.0522 14.811C96.2062 14.8477 96.4005 14.866 96.6352 14.866H98.1642V16.846C98.0175 16.912 97.7865 16.9743 97.4712 17.033C97.1632 17.0917 96.7305 17.121 96.1732 17.121C95.1758 17.121 94.4022 16.9927 93.8522 16.736C93.3095 16.4793 92.9318 16.12 92.7192 15.658C92.5065 15.196 92.4002 14.6607 92.4002 14.052V7.859H90.5522V5.626H92.5102L93.3132 2.194H95.6012V5.615H98.1312V7.859ZM102.779 12.05C102.771 12.6293 102.863 13.1353 103.054 13.568C103.244 13.9933 103.519 14.3233 103.879 14.558C104.245 14.7853 104.685 14.899 105.199 14.899C105.749 14.899 106.229 14.7817 106.64 14.547C107.058 14.3123 107.347 13.9273 107.509 13.392H110.402C110.277 14.1987 109.954 14.888 109.434 15.46C108.92 16.032 108.297 16.4683 107.564 16.769C106.83 17.0697 106.068 17.22 105.276 17.22C104.154 17.22 103.164 16.9853 102.306 16.516C101.455 16.0393 100.791 15.3683 100.315 14.503C99.838 13.6377 99.5997 12.6183 99.5997 11.445C99.5997 10.3083 99.816 9.28533 100.249 8.376C100.681 7.45933 101.308 6.737 102.13 6.209C102.958 5.67367 103.952 5.406 105.111 5.406C106.269 5.406 107.241 5.65167 108.026 6.143C108.818 6.627 109.412 7.30533 109.808 8.178C110.211 9.04333 110.413 10.0443 110.413 11.181V12.05H102.779ZM102.768 10.136H107.41C107.41 9.68133 107.325 9.26333 107.157 8.882C106.988 8.50067 106.731 8.2 106.387 7.98C106.049 7.76 105.624 7.65 105.111 7.65C104.612 7.65 104.187 7.771 103.835 8.013C103.49 8.24767 103.226 8.55567 103.043 8.937C102.859 9.31833 102.768 9.718 102.768 10.136Z" fill="#23272E"/>
</svg>
