<svg width="163" height="24" viewBox="0 0 163 24" fill="none" xmlns="http://www.w3.org/2000/svg">
<path d="M38.874 20.22C38.082 20.22 37.3193 20.0917 36.586 19.835C35.8527 19.571 35.233 19.1603 34.727 18.603C34.221 18.0383 33.8983 17.3087 33.759 16.414H36.542C36.6373 16.8173 36.8097 17.1363 37.059 17.371C37.3157 17.6057 37.6053 17.7743 37.928 17.877C38.2507 17.9723 38.5587 18.02 38.852 18.02C39.468 18.02 39.963 17.9247 40.337 17.734C40.7183 17.536 40.909 17.2353 40.909 16.832C40.909 16.524 40.7953 16.2783 40.568 16.095C40.348 15.9117 39.9813 15.7723 39.468 15.677L37.466 15.259C36.4613 15.0463 35.6547 14.687 35.046 14.181C34.4373 13.6677 34.1257 12.9417 34.111 12.003C34.111 11.321 34.2907 10.7087 34.65 10.166C35.0167 9.62333 35.5557 9.19433 36.267 8.879C36.9783 8.56367 37.851 8.406 38.885 8.406C40.2857 8.406 41.404 8.714 42.24 9.33C43.0833 9.946 43.5123 10.815 43.527 11.937H40.843C40.7623 11.497 40.5423 11.1597 40.183 10.925C39.831 10.683 39.3873 10.562 38.852 10.562C38.2947 10.562 37.8363 10.661 37.477 10.859C37.1177 11.057 36.938 11.3577 36.938 11.761C36.938 12.0617 37.0847 12.3 37.378 12.476C37.6713 12.6447 38.126 12.7913 38.742 12.916L40.59 13.334C41.228 13.488 41.745 13.7007 42.141 13.972C42.5443 14.236 42.856 14.5257 43.076 14.841C43.296 15.1563 43.4463 15.4753 43.527 15.798C43.615 16.1133 43.659 16.3993 43.659 16.656C43.659 17.4113 43.4573 18.0567 43.054 18.592C42.6507 19.12 42.0897 19.5233 41.371 19.802C40.6523 20.0807 39.82 20.22 38.874 20.22ZM52.7132 10.859H50.1832L50.2052 16.92C50.2052 17.1987 50.2382 17.4077 50.3042 17.547C50.3775 17.679 50.4875 17.767 50.6342 17.811C50.7882 17.8477 50.9825 17.866 51.2172 17.866H52.7462V19.846C52.5995 19.912 52.3685 19.9743 52.0532 20.033C51.7452 20.0917 51.3125 20.121 50.7552 20.121C49.7579 20.121 48.9842 19.9927 48.4342 19.736C47.8915 19.4793 47.5139 19.12 47.3012 18.658C47.0885 18.196 46.9822 17.6607 46.9822 17.052V10.859H45.1342V8.626H47.0922L47.8952 5.194H50.1832V8.615H52.7132V10.859ZM59.6047 20.22C58.49 20.22 57.5184 19.9817 56.6897 19.505C55.8684 19.0283 55.2304 18.3537 54.7757 17.481C54.3284 16.6083 54.1047 15.5743 54.1047 14.379C54.1047 13.1837 54.3284 12.1387 54.7757 11.244C55.2304 10.3493 55.8684 9.65267 56.6897 9.154C57.5184 8.65533 58.4937 8.406 59.6157 8.406C60.7377 8.406 61.7094 8.65167 62.5307 9.143C63.352 9.627 63.9864 10.3163 64.4337 11.211C64.881 12.1057 65.1047 13.1617 65.1047 14.379C65.1047 15.523 64.8847 16.535 64.4447 17.415C64.012 18.2877 63.385 18.9733 62.5637 19.472C61.7497 19.9707 60.7634 20.22 59.6047 20.22ZM59.6157 17.833C60.1804 17.833 60.635 17.668 60.9797 17.338C61.3244 17.008 61.5737 16.5753 61.7277 16.04C61.889 15.4973 61.9697 14.907 61.9697 14.269C61.9697 13.6677 61.8964 13.0993 61.7497 12.564C61.6104 12.0287 61.3684 11.596 61.0237 11.266C60.679 10.936 60.2097 10.771 59.6157 10.771C59.051 10.771 58.5927 10.9287 58.2407 11.244C57.896 11.552 57.643 11.9737 57.4817 12.509C57.3204 13.037 57.2397 13.6237 57.2397 14.269C57.2397 14.863 57.313 15.435 57.4597 15.985C57.6064 16.5277 57.852 16.9713 58.1967 17.316C58.5414 17.6607 59.0144 17.833 59.6157 17.833ZM72.1191 8.406C73.0724 8.406 73.8938 8.60033 74.5831 8.989C75.2798 9.37767 75.8261 9.902 76.2221 10.562C76.6254 11.222 76.8564 11.959 76.9151 12.773H74.2421C74.1908 12.4723 74.0844 12.1753 73.9231 11.882C73.7618 11.5813 73.5344 11.3357 73.2411 11.145C72.9478 10.947 72.5811 10.848 72.1411 10.848C71.3931 10.848 70.7844 11.1377 70.3151 11.717C69.8531 12.289 69.6221 13.1617 69.6221 14.335C69.6221 15.4423 69.8494 16.3223 70.3041 16.975C70.7588 17.6203 71.3931 17.943 72.2071 17.943C72.6398 17.943 72.9991 17.8367 73.2851 17.624C73.5784 17.4113 73.8058 17.1583 73.9671 16.865C74.1284 16.5643 74.2311 16.2857 74.2751 16.029H76.8821C76.8308 16.8137 76.6034 17.525 76.2001 18.163C75.7968 18.7937 75.2468 19.296 74.5501 19.67C73.8608 20.0367 73.0504 20.22 72.1191 20.22C71.0631 20.22 70.1208 19.9853 69.2921 19.516C68.4634 19.0467 67.8108 18.3757 67.3341 17.503C66.8648 16.623 66.6301 15.5743 66.6301 14.357C66.6301 13.1837 66.8574 12.1497 67.3121 11.255C67.7668 10.3603 68.4048 9.66367 69.2261 9.165C70.0548 8.659 71.0191 8.406 72.1191 8.406ZM90.116 20H86.915L83.846 15.094L82.339 16.7V20H79.127V3.654H82.339V13.345L86.519 8.626H89.973L85.837 13.158L90.116 20ZM92.3172 20V4.094H96.9812L100.622 15.435L104.296 4.094H108.949V20H105.704V7.834L101.876 20H99.3572L95.5512 7.889V20H92.3172ZM115.384 20.22C114.658 20.22 114.005 20.0843 113.426 19.813C112.847 19.5417 112.388 19.1493 112.051 18.636C111.714 18.1153 111.545 17.4847 111.545 16.744C111.545 15.4973 112.011 14.5513 112.942 13.906C113.873 13.2533 115.344 12.916 117.353 12.894L118.772 12.872V12.19C118.772 11.6693 118.618 11.2697 118.31 10.991C118.009 10.705 117.54 10.5657 116.902 10.573C116.433 10.5803 115.985 10.6903 115.56 10.903C115.142 11.1157 114.856 11.486 114.702 12.014H112.029C112.073 11.1927 112.311 10.518 112.744 9.99C113.177 9.45467 113.763 9.05867 114.504 8.802C115.252 8.538 116.099 8.406 117.045 8.406C118.211 8.406 119.146 8.55267 119.85 8.846C120.554 9.132 121.064 9.54633 121.379 10.089C121.694 10.6243 121.852 11.2623 121.852 12.003V20H119.168L118.904 18.042C118.515 18.8633 118.028 19.4317 117.441 19.747C116.862 20.0623 116.176 20.22 115.384 20.22ZM116.462 18.108C116.755 18.108 117.038 18.0567 117.309 17.954C117.588 17.844 117.833 17.701 118.046 17.525C118.266 17.3417 118.442 17.1363 118.574 16.909C118.706 16.6817 118.772 16.447 118.772 16.205V14.522L117.617 14.544C117.082 14.5513 116.583 14.6173 116.121 14.742C115.659 14.8593 115.285 15.0537 114.999 15.325C114.72 15.5963 114.581 15.963 114.581 16.425C114.581 16.953 114.764 17.3673 115.131 17.668C115.498 17.9613 115.941 18.108 116.462 18.108ZM131.131 10.859H128.601L128.623 16.92C128.623 17.1987 128.656 17.4077 128.722 17.547C128.796 17.679 128.906 17.767 129.052 17.811C129.206 17.8477 129.401 17.866 129.635 17.866H131.164V19.846C131.018 19.912 130.787 19.9743 130.471 20.033C130.163 20.0917 129.731 20.121 129.173 20.121C128.176 20.121 127.402 19.9927 126.852 19.736C126.31 19.4793 125.932 19.12 125.719 18.658C125.507 18.196 125.4 17.6607 125.4 17.052V10.859H123.552V8.626H125.51L126.313 5.194H128.601V8.615H131.131V10.859ZM135.779 15.05C135.771 15.6293 135.863 16.1353 136.054 16.568C136.244 16.9933 136.519 17.3233 136.879 17.558C137.245 17.7853 137.685 17.899 138.199 17.899C138.749 17.899 139.229 17.7817 139.64 17.547C140.058 17.3123 140.347 16.9273 140.509 16.392H143.402C143.277 17.1987 142.954 17.888 142.434 18.46C141.92 19.032 141.297 19.4683 140.564 19.769C139.83 20.0697 139.068 20.22 138.276 20.22C137.154 20.22 136.164 19.9853 135.306 19.516C134.455 19.0393 133.791 18.3683 133.315 17.503C132.838 16.6377 132.6 15.6183 132.6 14.445C132.6 13.3083 132.816 12.2853 133.249 11.376C133.681 10.4593 134.308 9.737 135.13 9.209C135.958 8.67367 136.952 8.406 138.111 8.406C139.269 8.406 140.241 8.65167 141.026 9.143C141.818 9.627 142.412 10.3053 142.808 11.178C143.211 12.0433 143.413 13.0443 143.413 14.181V15.05H135.779ZM135.768 13.136H140.41C140.41 12.6813 140.325 12.2633 140.157 11.882C139.988 11.5007 139.731 11.2 139.387 10.98C139.049 10.76 138.624 10.65 138.111 10.65C137.612 10.65 137.187 10.771 136.835 11.013C136.49 11.2477 136.226 11.5557 136.043 11.937C135.859 12.3183 135.768 12.718 135.768 13.136Z" fill="#23272E"/>
<rect width="28" height="24" rx="8" fill="#0F60FF"/>
<path d="M16.3203 19V13.1758H9.59375L6.47656 10.0586V6.55469L9.59375 3.44922H11.3516V8.96875H18.5L21.5117 12.0859V15.8945L18.4062 19H16.3203ZM12.1719 6.25V3.44922H18.3945L21.0898 6.15625V7.80859H16.3203V6.25H12.1719ZM6.47656 14.3359H11.6562V16.1875H15.5V19H9.08984L6.47656 15.8945V14.3359Z" fill="white"/>
</svg>
